<svg data-v-423bf9ae="" xmlns="http://www.w3.org/2000/svg" viewBox="0 0 344.09381541731165 163" class="iconAbove"><!----><!----><!----><g data-v-423bf9ae="" id="677b1024-8d1d-4b3d-8509-a106ac5c9a4a" fill="#03275A" transform="matrix(5.410279921920812,0,0,5.410279921920812,-0.7574426797724243,88.71686258433532)"><path d="M10.20 13.52L13.18 4.36L10.20 4.36L8.98 9.12L7.53 4.36L5.78 4.36L4.36 9.12L3.12 4.36L0.14 4.36L3.14 13.52L5.07 13.52L6.67 8.67L8.27 13.52ZM16.09 5.48C16.87 5.48 17.57 4.84 17.57 4.06C17.57 3.27 16.87 2.64 16.09 2.64C15.30 2.64 14.63 3.27 14.63 4.06C14.63 4.84 15.30 5.48 16.09 5.48ZM17.34 6.55L13.85 6.55L13.85 8.46L14.98 8.46L14.98 13.52L17.34 13.52ZM21.55 6.34C19.89 6.34 18.63 7.25 18.63 8.68C18.63 9.65 19.09 10.32 20.11 10.64L20.81 10.86C21.36 11.03 21.66 11.13 21.66 11.39C21.66 11.72 21.41 11.83 20.89 11.83C20.23 11.83 19.32 11.53 18.66 11.12L18.66 12.95C19.29 13.38 20.22 13.73 21.26 13.73C22.75 13.73 24.12 12.77 24.12 11.40C24.12 10.40 23.53 9.76 22.30 9.45L21.88 9.34C21.29 9.19 21.14 9.11 21.14 8.85C21.14 8.48 21.53 8.31 21.97 8.31C22.65 8.31 23.27 8.64 23.75 8.93L23.75 7.08C23.27 6.63 22.45 6.34 21.55 6.34ZM29.67 6.34C28.74 6.34 28.14 6.85 27.70 7.45L27.70 3.68L25.35 3.68L25.35 13.52L27.70 13.52L27.70 9.31C27.95 8.94 28.29 8.64 28.79 8.64C29.27 8.64 29.72 8.89 29.72 9.58L29.74 13.52L32.09 13.52L32.09 9.21C32.09 7.33 31.09 6.34 29.67 6.34ZM36.76 11.27L36.76 4.36L34.21 4.36L34.21 13.52L40.88 13.52L40.88 11.27ZM44.47 5.48C45.25 5.48 45.95 4.84 45.95 4.06C45.95 3.27 45.25 2.64 44.47 2.64C43.68 2.64 43.01 3.27 43.01 4.06C43.01 4.84 43.68 5.48 44.47 5.48ZM45.72 6.55L42.23 6.55L42.23 8.46L43.37 8.46L43.37 13.52L45.72 13.52ZM51.82 6.34C50.89 6.34 50.29 6.85 49.85 7.45L49.85 6.55L47.50 6.55L47.50 13.52L49.85 13.52L49.85 9.31C50.09 8.94 50.44 8.64 50.94 8.64C51.42 8.64 51.87 8.89 51.87 9.58L51.88 13.52L54.24 13.52L54.24 9.21C54.24 7.33 53.24 6.34 51.82 6.34ZM59.25 11.09L60.63 13.52L63.74 13.52L60.70 9.54L63.51 6.55L60.66 6.55L58.43 9.35L58.43 3.68L56.08 3.68L56.08 13.52L58.43 13.52L58.43 11.96Z"></path></g><!----><g data-v-423bf9ae="" id="b8ee936d-30b7-4a36-be94-4e8ab71d8a0b" transform="matrix(2.8125,0,0,2.8125,127.57400426268578,0)" stroke="none" fill="#03275A"><path d="M27.377 11.377L16 0 4.623 11.377 16 22.753l11.377-11.376zM16 6.026l5.35 5.35L16 16.727l-5.35-5.35L16 6.026zM27.426 14.969l-5.664 5.664V32h5.664zM10.238 20.633l-5.664-5.664V32h5.664z"></path></g><!----></svg>